<svg xmlns:dc="http://purl.org/dc/elements/1.1/" xmlns:cc="http://creativecommons.org/ns#" xmlns:rdf="http://www.w3.org/1999/02/22-rdf-syntax-ns#" xmlns:svg="http://www.w3.org/2000/svg" xmlns="http://www.w3.org/2000/svg" xmlns:sodipodi="http://sodipodi.sourceforge.net/DTD/sodipodi-0.dtd" xmlns:inkscape="http://www.inkscape.org/namespaces/inkscape" width="219" height="113" id="svg5445" version="1.1" inkscape:version="0.48.5 r10040" sodipodi:docname="New document 15">
  <defs id="defs5447"/>
  <sodipodi:namedview id="base" pagecolor="#ffffff" bordercolor="#666666" borderopacity="1.0" inkscape:pageopacity="0.0" inkscape:pageshadow="2" inkscape:zoom="0.35" inkscape:cx="375" inkscape:cy="520" inkscape:document-units="px" inkscape:current-layer="layer1" showgrid="false" inkscape:window-width="1920" inkscape:window-height="1018" inkscape:window-x="-8" inkscape:window-y="-8" inkscape:window-maximized="1"/>
  <metadata id="metadata5450">
    <rdf:RDF>
      <cc:Work rdf:about="">
        <dc:format>image/svg+xml</dc:format>
        <dc:type rdf:resource="http://purl.org/dc/dcmitype/StillImage"/>
        <dc:title/>
      </cc:Work>
    </rdf:RDF>
  </metadata>
  <g inkscape:label="Layer 1" inkscape:groupmode="layer" id="layer1" transform="translate(0,-939.36218)">
    <path style="fill:#ffffff;fill-opacity:1;stroke:none" d="m 87.728304,1052.2369 c -1.875878,-0.2592 -6.609088,-1.6135 -7.854365,-2.2474 -1.555945,-0.7921 -5.569471,-3.3079 -6.651837,-4.1697 -0.553157,-0.4403 -2.269499,-2.1027 -3.814086,-3.694 l -2.808333,-2.8932 -3.110688,1.6381 -3.110679,1.6381 -4.50879,0.1039 -4.50879,0.1038 -4.578311,-2.65 -4.578322,-2.6501 -1.499625,-2.3974 c -0.824792,-1.3185 -1.576237,-2.3974 -1.669888,-2.3974 -0.09365,0 -1.818386,-0.307 -3.832756,-0.6822 l -3.662483,-0.6823 -2.573607,-2.5514 -2.573607,-2.5514 -1.784641,-0.01 c -2.789213,-0.012 -6.04283,-0.3625 -9.183376,-0.9899 -2.408332,-0.4812 -3.324381,-0.7915 -5.5710537,-1.8864 -1.5820068,-0.7711 -3.0541075,-1.6643 -3.5762948,-2.17 -1.260952,-1.2209 -3.7670607,-4.6313 -4.5622459,-6.2082 -0.82610462,-1.6383 -1.88890889,-5.7508 -1.69028038,-6.5404 0.07862608,-0.3125 0.62351985,-1.5849 1.21090168,-2.8274 0.9875236,-2.0889 1.2683339,-2.4605 3.7288294,-4.9332 2.3882297,-2.40009 2.8953329,-2.79408 4.9490562,-3.84505 4.2794825,-2.19 8.0397115,-3.15156 12.3244725,-3.15163 l 2.373346,-4e-5 0.615287,-2.71384 c 0.512161,-2.25892 0.826235,-3.09065 1.873664,-4.96178 1.685062,-3.0102 2.641776,-4.19774 6.035158,-7.49122 2.773888,-2.69224 2.952545,-2.82225 5.109393,-3.71812 3.370535,-1.40001 7.271731,-2.6891 9.299653,-3.07295 1.127067,-0.21334 3.082773,-0.34317 5.169269,-0.34317 l 3.356292,0 5.830339,2.46421 c 3.206692,1.35532 6.027846,2.48431 6.269243,2.50888 0.354739,0.0361 0.613414,-0.36155 1.349054,-2.07394 0.763925,-1.77823 1.177618,-2.39876 2.574919,-3.86234 0.915628,-0.95906 2.53207,-2.32259 3.59211,-3.03009 l 1.927341,-1.28636 2.421282,-0.14782 c 1.331706,-0.0813 3.154018,-0.14783 4.049584,-0.14783 0.895556,0 1.687867,-0.0962 1.760693,-0.21376 0.07282,-0.11757 0.382894,-2.27748 0.689045,-4.79981 l 0.556643,-4.58603 1.467824,-3.3106 1.467823,-3.31059 3.568322,-3.31894 3.568332,-3.31895 3.954379,-1.74862 3.95436,-1.74863 3.24075,0.11983 c 3.29134,0.1217 6.25279,0.652 9.61051,1.72096 2.32544,0.74032 5.00041,2.36757 7.07371,4.30313 2.31706,2.16313 3.47459,3.6453 5.08463,6.51072 1.01263,1.80219 1.39479,2.79946 2.04569,5.33836 0.44025,1.71719 0.89394,3.48289 1.00821,3.92379 l 0.20777,0.80162 3.29737,0.14379 c 3.20247,0.13964 3.3424,0.16653 4.86187,0.93392 0.86048,0.43457 2.41939,1.36394 3.46425,2.06524 1.88746,1.26686 1.91326,1.29711 3.98967,4.67604 1.84748,3.00639 2.15861,3.40085 2.682,3.4003 0.32564,-4.5e-4 2.29749,-0.3516 4.3819,-0.78055 3.59721,-0.74027 4.01867,-0.77991 8.29291,-0.77991 6.68716,0 9.70326,0.29748 12.64838,1.24749 4.44788,1.43475 9.31862,3.71056 12.14639,5.67526 2.51352,1.74636 8.01062,8.6763 9.14448,11.52798 0.28118,0.70719 0.95365,2.81513 1.49437,4.68432 l 0.98315,3.39853 1.94175,0.002 c 3.07219,0.004 5.97213,0.81556 9.09364,2.5455 1.73562,0.9619 2.78439,2.0273 4.48307,4.5542 1.85599,2.761 2.42637,4.6325 2.62848,8.625 l 0.12419,2.4532 -1.40043,2.7471 c -1.22549,2.4039 -1.66872,3.0263 -3.54807,4.9814 l -2.14763,2.2344 -2.57025,0.7758 c -1.41364,0.4267 -3.9783,1.0153 -5.69925,1.308 l -3.129,0.5323 -2.95815,-1.1413 -2.95815,-1.1414 -2.18235,2.1052 c -2.22189,2.1434 -3.72193,3.2778 -7.31715,5.5335 -1.83924,1.154 -2.34253,1.3478 -5.70496,2.197 -3.12676,0.7896 -3.82374,0.8988 -4.58174,0.717 -0.4917,-0.1179 -2.49173,-0.5776 -4.44451,-1.0215 l -3.5505,-0.8071 -2.70749,-1.9003 c -1.48913,-1.0451 -2.80808,-1.9336 -2.931,-1.9744 -0.2184,-0.072 -0.668,0.4769 -4.99949,6.1087 -2.06791,2.6885 -2.16127,2.7742 -4.59017,4.2129 -2.88545,1.7091 -6.28503,3.4344 -9.94181,5.0454 l -2.59504,1.1434 -5.0581,0.076 c -4.76473,0.072 -5.30271,0.037 -9.27525,-0.602 -4.21597,-0.6781 -4.21798,-0.6787 -7.24145,-2.1587 l -3.0243,-1.4803 -1.78095,1.2756 c -2.13961,1.5325 -4.72284,3.0783 -8.03895,4.8106 -2.38599,1.2463 -2.55408,1.2976 -5.699252,1.737 -3.820467,0.5339 -9.119694,0.7558 -11.196304,0.469 l 0,0 z" id="path5432" inkscape:connector-curvature="0"/>
  </g>
</svg>